<svg xmlns="http://www.w3.org/2000/svg" width="97.438" height="103.51" viewBox="0 0 97.438 103.51"><defs><style>.a{fill:#363996;}.b{fill:#383a97;}.c{fill:#fdfdfd;}.d{fill:#fcfcfd;}.e{fill:#f2f2f7;}.f{fill:#00008e;}.g{fill:#2e3094;}.h{fill:#f8f7fa;}</style></defs><g transform="translate(-3.122 -108.05)"><path class="a" d="M35.742,194.49a37.549,37.549,0,0,1,8.815-2.737,35.377,35.377,0,0,1,12.571.151,44.378,44.378,0,0,1,10.087,3.3c.066.01.171.048.189.023.058-.081-.016-.119-.089-.14-1.063-1.554-2.125-3.108-3.254-4.76a13.151,13.151,0,0,1,2.619.777c2.568.841,5.137,1.686,7.686,2.586.673.239.713.01.711-.55-.016-3.32-.008-6.639-.008-9.959V182.15c.581.695,1.021,1.22,1.531,1.827a60.81,60.81,0,0,1,2.079-7.379,9.072,9.072,0,0,1,1.044-2.13c.354-.494.739-.979,1.449-.923s1.007.594,1.274,1.144a12.845,12.845,0,0,1,.8,3.753c.151.966.258,1.939.393,2.983a21.106,21.106,0,0,1,3.649-1.542,4.677,4.677,0,0,1,1.462-.166,1.6,1.6,0,0,1,1.667,1.666c.1,1.422.181,2.846.234,4.27.018.507.015.785.7.624,1.06-.25,2.156-.347,3.236-.505,1.826-.268,2.724.843,2.084,2.556a12.116,12.116,0,0,1-5.585,6.115,21.282,21.282,0,0,1-5.406,2.306c-.565.151-.843.362-.36.905.374.42.071.66-.227.925q-4.509,4.022-9,8.061c-.372.337-.5.193-.724-.125-.965-1.4-1.946-2.785-2.922-4.174-.2-.285-.4-.566-.685-.958-.747,1.756-1.452,3.406-2.151,5.058-.5,1.184-1.006,2.364-1.483,3.557-.156.39-.3.482-.718.286a43.869,43.869,0,0,0-10.24-3.391c-6.1-1.223-12.125-1.286-17.936,1.348a16.864,16.864,0,0,0-5.016,3.32h-.329a15.934,15.934,0,0,0-.966-3.351c-.7-2.27-1.445-4.527-2.207-6.9-1.223,1.735-2.42,3.379-3.549,5.07-.336.5-.537.537-.968.147q-4.415-4-8.866-7.962a.664.664,0,0,1-.161-1.022c.382-.6.718-1.221,1.073-1.837A26.019,26.019,0,0,1,3.169,181.509a5.329,5.329,0,0,1,1.705-.181,6.294,6.294,0,0,0,1.681.067,66.789,66.789,0,0,1-2.239-6.772,29.447,29.447,0,0,1-1.19-8.176c.026-1.2.112-1.317,1.272-1.435.459-.048.476-.143.43-.578a38.267,38.267,0,0,1,.762-14.186c.17-.622.354-.841.91-.344.4.36.849.677,1.345,1.065a27.755,27.755,0,0,1,.851-4.993,11.284,11.284,0,0,1,4.1-6.076,1.768,1.768,0,0,0,.576-.77,30.688,30.688,0,0,1,3.715-6.174c.365-.484.581-.466.994-.069.342.328.568,1.032,1.012.927.372-.089.614-.714.917-1.1a21.985,21.985,0,0,1,5.095-5.081,3.9,3.9,0,0,1,3.335-.734c.4.117.6-.2.864-.356a15.014,15.014,0,0,1,8.27-2.527c.453.013.9.086,1.429.138a6.136,6.136,0,0,0-2.471-2.774,15.655,15.655,0,0,1,5.863.522c.069.107.194.156.277.086.132-.112-.043-.163-.092-.235a10.785,10.785,0,0,1-1.249-6.158,17.27,17.27,0,0,1,3.411,2.122,34.269,34.269,0,0,1-.114-5.755,26.222,26.222,0,0,1,4.82,4.161,35.927,35.927,0,0,1,2.4-8.072,36.351,36.351,0,0,1,2.431,8.1,25.367,25.367,0,0,1,4.7-4.158,16.176,16.176,0,0,1-.087,5.742,25.034,25.034,0,0,1,3.49-2.173,11.09,11.09,0,0,1-1.363,6.393,16.791,16.791,0,0,1,6.094-.574,6.249,6.249,0,0,0-2.337,2.657,20.6,20.6,0,0,1,3.626.263,11.884,11.884,0,0,1,4.556,1.755c.179.119.341.357.568-.016a1.17,1.17,0,0,1,1.654-.384,12.366,12.366,0,0,1,3.416,2.792c.328.323-.092.454-.237.64-.2.25-.385.341-.657.04a13.914,13.914,0,0,0-2.38-2.137c-.235-.163-.517-.472-.8-.309-.321.184-.077.535-.025.816.084.451.16.905.281,1.6a11.009,11.009,0,0,0-6.044-3.6,9.774,9.774,0,0,0-3.187-.3c1.077,1.924,2.028,3.819,4.316,4.413.492.128.346.472.388.77.054.374-.206.375-.461.4-.191.016-.38.049-.57.082-.356.063-.915-.123-.994.3-.058.308.449.556.757.782a12.748,12.748,0,0,0,2.337,1.356c.52.232.3.487.163.833-.171.443-.384.341-.68.174a13.479,13.479,0,0,1-3.277-2.16c-.739-.759-.741-1.282.031-2,.214-.2.193-.262.012-.412a12.317,12.317,0,0,1-3.323-4.784,31.74,31.74,0,0,1-2.82,3.3,12.989,12.989,0,0,1-6.367,3.7,11.358,11.358,0,0,1-1.8.145c-.263.012-.729-.268-.649.374.054.428-.107.932.675.9a21.2,21.2,0,0,1,2.538.143,34.328,34.328,0,0,1,14.4,4.6,43.222,43.222,0,0,1,3.778,2.466.9.9,0,0,1,.42,1.011c-.5,3.964-.923,7.936-1.379,11.9q-.472,4.116-.963,8.229c-.1.877-.028.994.8.8,2.36-.565,4.726-1.124,7.062-1.784.788-.222.953.067,1.006.7a6.745,6.745,0,0,1-.456,2.9c-1.152,3.129-1.648,6.444-2.807,9.575-.627,1.694-1.3,3.356-2.058,4.993-.224.484-.6.413-.956.392a27.477,27.477,0,0,0-8.881,1.351A34.847,34.847,0,0,1,61.345,182a8.358,8.358,0,0,1-5.239-.79,11.409,11.409,0,0,0-6.09-.887,15.763,15.763,0,0,0-4.571,1.17,7.235,7.235,0,0,1-6.318-.611,13.656,13.656,0,0,0-7.062-1.486c-.652.01-1.493.324-1.9.026-.5-.359-.644-1.216-.922-1.868q-4.062-9.538-8.133-19.122c.581-.166.9.311,1.221.588.652.566,1.04.23,1.391-.286a2.634,2.634,0,0,0,.24-2.142,4.415,4.415,0,0,1-.077-1.71,1.328,1.328,0,0,1,1.488-1.1,1.058,1.058,0,0,1,1.2.973.924.924,0,0,1-.255.818,4.4,4.4,0,0,0-.512,4.583c.413.7.734,1.46,1.651,1.7.331.089.489.15.726-.183A20.58,20.58,0,0,0,32.4,148.01,15.945,15.945,0,0,0,30.11,140.9c-.339-.565-.181-.77.285-1.057A43.207,43.207,0,0,1,50.566,133.4c.769-.053.435-.619.537-.966s-.145-.379-.436-.362c-2.9.17-5.23-1.128-7.365-2.9a21.9,21.9,0,0,1-3.445-3.74c-.211-.28-.357-.565-.678-.063a23.911,23.911,0,0,1-6.744,7.616c.112.3.51.2.667.519a11.077,11.077,0,0,1-4.252,3.587,3.2,3.2,0,0,0-1.35.942,8.594,8.594,0,0,0-2.112,4.061,8.787,8.787,0,0,1-2.29,3.934A33.841,33.841,0,0,1,19.85,149.4a1.1,1.1,0,0,0-.459.736,30.077,30.077,0,0,1-1.485,6.454c-.077.247-.217.456,0,.756,1.7,2.379,1.607,4.978.8,7.611a2.742,2.742,0,0,0,.074,2.02,21.246,21.246,0,0,1,1.281,5.068c.058.372.117.744.189,1.216a17.06,17.06,0,0,1,1.223-2.03,23.2,23.2,0,0,1,3.075,5.921,32.067,32.067,0,0,1,1.434,6.658l1.248-1.5c.242.247.137.5.138.733q.012,4.9,0,9.794c0,1.109,0,1.111,1.072.746,2.971-1.012,5.941-2.03,8.917-3.029a1.7,1.7,0,0,1,1.014-.2c-.942,1.36-1.858,2.683-2.775,4-.012.067-.023.135-.033.2Zm20.75-69.583c.063-.043.125-.084.186-.127.461-.291.932-.57,1.383-.874,2.492-1.684,3.46-4.143,3.658-7.2-1.221.82-2.522,1.368-3.169,2.51a33.519,33.519,0,0,1-3.518,5.027,2.918,2.918,0,0,0-.568,2.133C55.22,125.833,55.857,125.37,56.492,124.907Zm-9.277-.077-.018-.018a11.034,11.034,0,0,0,2.077,1.564,3.841,3.841,0,0,0-1.053-2.69A17.28,17.28,0,0,1,45.5,119.8c-.726-1.511-2.17-2.105-3.5-3.078C42.178,120.572,43.854,123.25,47.215,124.83Zm-1.974-11.373a3.994,3.994,0,0,0,.026,2.627,2.026,2.026,0,0,1,.15.961c.226,2.65,2.021,4.4,3.542,6.476A2.146,2.146,0,0,0,48.736,122c-.416-.8-.779-1.626-1.16-2.444q-.78-1.672-1.559-3.345c-.076-.163-.25-.323-.021-.5s.426,0,.571.12a1.383,1.383,0,0,1,.283.491c.612,1.284,1.216,2.57,1.832,3.852.069.143.04.393.323.374.015-.255.02-.5.043-.747.275-2.923.275-2.923-1.875-4.918a1.9,1.9,0,0,0-.181-.166C46.4,114.3,46,113.632,45.241,113.457Zm4.464,10.364c.166,1.022.309,2.049.5,3.067a18.754,18.754,0,0,0,1.626,4.923c3.184-6.107,2.514-15.547-.031-21.728a41.239,41.239,0,0,0-1.269,4.38c-.4,1.677-.535,3.4-.823,5.09-.412.537-.184,1.157-.17,1.725A5.5,5.5,0,0,0,49.705,123.821Zm2.28,68.5a5.351,5.351,0,0,0-3.118,0,2.67,2.67,0,0,1-.472.1,30.184,30.184,0,0,0-7.264,1.236,31.192,31.192,0,0,0-9.582,4.579c-.242.174-.6.283-.448.752,1.162,3.56,2.308,7.126,3.475,10.742.334-.232.624-.431.912-.634a20.741,20.741,0,0,1,7.388-3.269,15.457,15.457,0,0,1,3-.461c1.391-.04,2.77-.423,4.184-.382a14.771,14.771,0,0,0,1.844.2,11.437,11.437,0,0,1,2.991.2,45.839,45.839,0,0,1,11.875,3.389c.4.173.6.214.8-.263q1.909-4.627,3.878-9.231c.151-.356.1-.525-.222-.718a45.474,45.474,0,0,0-13.48-5.448C55.842,192.713,53.908,192.563,51.985,192.326Zm20.049-39.741c.372-3.266.655-6.4,1.121-9.508a2.3,2.3,0,0,0-1.218-2.624,34.712,34.712,0,0,0-16.648-5.9,36.628,36.628,0,0,0-11.5.943,44.4,44.4,0,0,0-12.113,4.853c-.37.217-.408.36-.207.741a17.725,17.725,0,0,1,2.061,9.167c-.03.658.046.839.775.606a58.108,58.108,0,0,1,22.614-3.012,35.861,35.861,0,0,1,10.431,2.372A36.338,36.338,0,0,1,72.034,152.585Zm-48.3,8.685-.161.138c.752,1.774,1.528,3.541,2.24,5.33a1.7,1.7,0,0,0,1.118,1.065,60.963,60.963,0,0,0,18.082,3.251,88.743,88.743,0,0,0,19.053-1.292,108.011,108.011,0,0,0,14.008-3.381c.252-.079.53-.086.662-.407a18.718,18.718,0,0,0,1.075-3.43c.105-.518-.081-.607-.576-.453-.912.283-1.844.5-2.772.734-4.691,1.169-9.419,2.165-14.189,2.946-3.294.54-6.607.919-9.937,1.187a48,48,0,0,1-10.161-.324,68.976,68.976,0,0,1-11.368-2.384A37.626,37.626,0,0,1,23.732,161.269Zm27.195,15.557c1.394-.084,2.8-.058,4.178-.272,2.856-.444,5.69-1.029,8.537-1.534q6.249-1.109,12.507-2.178a1.071,1.071,0,0,0,1.014-.863c.326-1.266.767-2.5,1.075-3.774.189-.787-.089-.677-.617-.517a110.613,110.613,0,0,1-11.834,2.891,98.118,98.118,0,0,1-13.1,1.536A77.451,77.451,0,0,1,33.567,170.8a54.158,54.158,0,0,1-6.092-1.618c-.168-.054-.375-.23-.512-.023-.063.094.023.309.081.454a10.792,10.792,0,0,1,.617,1.511c.481,2.105,1.817,2.871,3.916,3.24A136.251,136.251,0,0,0,50.927,176.826Zm26.6,8.079c-.025.171.156.379.3.607,2.072,3.314,4.267,6.55,6.188,9.957a.657.657,0,0,0,.905.377,23.615,23.615,0,0,0,5.717-2.418,11.216,11.216,0,0,0,4.946-5.31c.441-1.08.224-1.353-.932-1.2-1.462.2-2.927.392-4.379.655-.5.092-.621-.031-.642-.5-.082-1.779-.191-3.557-.285-5.337-.043-.826-.328-1.055-1.151-.919a13.464,13.464,0,0,0-3.516,1.322c-.63.3-1.37,1.139-1.814.844-.484-.319-.3-1.36-.418-2.086-.277-1.725-.357-3.48-.8-5.175-.1-.379-.143-.965-.573-.993-.4-.028-.591.53-.757.884A47.44,47.44,0,0,0,77.529,184.905Zm-48.192-9.929c.4.943.78,1.73,1.057,2.553a1.019,1.019,0,0,0,1.266.8,11.64,11.64,0,0,1,1.809-.01,12.981,12.981,0,0,1,6.064,1.534,6.307,6.307,0,0,0,5.822.5,14.086,14.086,0,0,1,4.833-1.116,12.377,12.377,0,0,1,6.994,1.286,3.9,3.9,0,0,0,1.639.467A12.924,12.924,0,0,0,64.342,180a26.008,26.008,0,0,1,8.872-1.751c1.118,0,1.885-.221,2.166-1.411a13.557,13.557,0,0,1,.533-1.279c.168-.476.658-1.032.364-1.426s-.927-.023-1.4.059c-4.925.853-9.842,1.748-14.772,2.573a49.259,49.259,0,0,1-5.643,1.016,70.483,70.483,0,0,1-13.518-.723C37.11,176.5,33.3,175.834,29.337,174.976ZM67.058,192.4l-.1.17c.747,1.073,1.506,2.138,2.235,3.223a3.133,3.133,0,0,0,1.2,1.07c.558.286,1.09.622,1.628.946.976.586,1,.6.505,1.666a1.089,1.089,0,0,0,.125,1.263c1,1.366,1.952,2.769,2.917,4.163.181.263.281.482.652.145,2.181-1.993,4.39-3.957,6.588-5.934.426-.384,1.057-.713,1.2-1.188.181-.581-.653-.923-.858-1.486a2.122,2.122,0,0,0-.2-.356c-1.942-3.136-3.766-6.344-5.812-9.414a4.119,4.119,0,0,0-.981-1.2v9.99C73.08,194.421,70.069,193.412,67.058,192.4Zm-31.529.079a.967.967,0,0,0-.665.089c-2.66.9-5.328,1.774-7.98,2.7-.568.2-.693.091-.688-.492.023-2.8.013-5.588.007-8.383a1.265,1.265,0,0,0-.143-.869,2.392,2.392,0,0,1-.421.9,41.542,41.542,0,0,0-3.132,4.407c-1.4,2.1-2.407,4.436-3.911,6.469a.666.666,0,0,0,.166,1.078c.519.4.986.864,1.475,1.3l6.308,5.641c1.156-1.651,2.273-3.271,3.419-4.869a.85.85,0,0,0,.13-1.039c-.538-.877-.191-1.445.607-1.916.611-.359,1.174-.8,1.771-1.184a2.9,2.9,0,0,0,.882-.721C34.074,194.565,34.792,193.536,35.529,192.482Zm-6.565-30.038c1.735.644,3.467,1.129,5.2,1.6.53.145.609-.03.695-.439a15.478,15.478,0,0,1,1.715-4.584c2.359-4.112,5.74-6.518,10.683-6.222,1.067.064,2.135.089,3.2.166.458.033.634-.109.637-.574.007-.986.021-1.975.1-2.958.044-.563-.188-.632-.653-.6-1.99.15-3.975.339-5.947.657a64.789,64.789,0,0,0-10.558,2.611,1.082,1.082,0,0,0-.876,1,14.7,14.7,0,0,1-.65,2.535A24.2,24.2,0,0,1,28.965,162.445ZM48.367,166a74.886,74.886,0,0,0,9.936-.8c.43-.066.943.107,1.276-.193.418-.375-.021-.866-.021-1.31a16.571,16.571,0,0,1,2.431-7.9c.51-.943.491-1-.573-1.179a3.409,3.409,0,0,0-.41-.035c-4.981-.232-9.962-.477-14.943-.683a7.628,7.628,0,0,0-3.858.97c-3.574,1.873-5.246,5.1-6.237,8.818-.168.63-.012.8.558.912A70.013,70.013,0,0,0,48.367,166Zm22.709-5.114c.247-2.2.4-4.184.718-6.142a1.2,1.2,0,0,0-.741-1.445A34.27,34.27,0,0,0,52.82,148.81c-.4,0-.505.135-.51.519-.013,1.014-.026,2.031-.13,3.037-.056.543.127.647.6.665,1.834.072,3.667.258,5.5.247a12.5,12.5,0,0,1,7.937,2.379A22.035,22.035,0,0,1,71.076,160.884ZM11.717,178.943a30.7,30.7,0,0,1,.65-3.027,3.992,3.992,0,0,0-.067-3.052,5.073,5.073,0,0,1-.3-1.773c-.016-.206.031-.4-.163-.6a21.384,21.384,0,0,0-3.4-3.078,6.768,6.768,0,0,0-3.648-1.305c-.347,0-.542.044-.553.481a18.6,18.6,0,0,0,.235,3.519,62.309,62.309,0,0,0,2.5,9.317c.509,1.547,1.184,2.509,2.917,2.709,1.432.165,1.633.112,1.516-1.368a1.915,1.915,0,0,0-.367-.813,67.335,67.335,0,0,1-4.132-7.816c-.132-.313-.367-.6.226-.8.5-.17.66-.051.826.4a30.058,30.058,0,0,0,1.849,3.832C10.4,176.654,11.029,177.727,11.717,178.943ZM4.96,182.407c-.015.117-.03.15-.02.17a24.349,24.349,0,0,0,13.452,11.99c.352.133.55.01.718-.314.39-.749.828-1.475,1.22-2.224.3-.57.9-1.182.749-1.727s-.851-.96-1.338-1.4c-.629-.566-1.1-1.4-1.908-1.656a19.553,19.553,0,0,1-4.937-2.695C10.488,182.927,7.709,182.754,4.96,182.407Zm13.3,3.585a30.758,30.758,0,0,1,.342-7.009,15.486,15.486,0,0,0,.51-5.417,26.224,26.224,0,0,0-1.6-6.742,13.027,13.027,0,0,0-2.586,4.41A51.366,51.366,0,0,0,12.334,182.2c-.043.27-.123.588.275.764,1.165.517,2.314,1.067,3.564,1.646-.155-1.373-.331-2.667-.438-3.965a20.836,20.836,0,0,1,.148-5.89c.077-.379.122-.686.649-.54.421.117.556.239.441.734a11.4,11.4,0,0,0-.216,2.2,40.5,40.5,0,0,0,.647,7.837A1.1,1.1,0,0,0,18.262,185.992ZM13.334,172.31c.788-2.16,1.465-4.174,2.938-5.687a6.148,6.148,0,0,0,1.738-3.5,7.185,7.185,0,0,0-.619-4.555c-.263-.5-.523-.657-1.073-.328a25.018,25.018,0,0,0-7.62,7.592c-.128.186-.2.313.04.458a18.013,18.013,0,0,1,3.363,2.872,21.783,21.783,0,0,1,1.707-5.924c.109-.242.089-.711.642-.446.467.224.591.431.356.932a18.584,18.584,0,0,0-1.43,4.512A9,9,0,0,0,13.334,172.31Zm-4.217-8.945a17.174,17.174,0,0,1,2.65-2.933,1.663,1.663,0,0,0,.464-2.214A19.835,19.835,0,0,0,6.488,151.3a30.147,30.147,0,0,0-.859,6.639,52.433,52.433,0,0,0,.3,6.568c.035.454,1.124,1.287,1.488,1.06a1.284,1.284,0,0,0,.685-1.332c-.344-2.216-.624-4.439-.951-6.657-.056-.375-.109-.612.393-.68.472-.064.655,0,.723.527C8.5,159.343,8.807,161.251,9.116,163.365Zm12.377,9.979a9.06,9.06,0,0,0-1.106,3.251,58.908,58.908,0,0,1-.942,8.963,1.849,1.849,0,0,0,.713,2.1c.448.3.775.775,1.2,1.116.2.156.29.691.754.278.392-.349.161-.6-.023-.912a10.135,10.135,0,0,1-1.016-7.761c.165-.7.53-.614.994-.4.507.23.112.6.056.836a8.961,8.961,0,0,0,.989,6.9c1.06-1.291,2.01-2.449,1.692-4.278a34.693,34.693,0,0,0-1.475-6.365A17.725,17.725,0,0,0,21.493,173.343Zm17.032-51.4c.441.706.8,1.251,1.126,1.809a18.73,18.73,0,0,0,5.425,5.855,8.54,8.54,0,0,0,5.07,1.77c.2,0,.507.11.548-.188a.52.52,0,0,0-.385-.565,12.935,12.935,0,0,1-4.352-2.846c-1.73-1.473-3.625-2.736-5.485-4.039-.217-.153-.514-.237-.252-.612.224-.321.4-.161.607-.016a66.9,66.9,0,0,1,6.986,5.312,8.054,8.054,0,0,0,2.351,1.366,4.466,4.466,0,0,0-1.964-3.274,29.91,29.91,0,0,1-3.694-2.579C42.8,122.4,40.71,122.363,38.525,121.94Zm15.014,7.835a6.762,6.762,0,0,0,2.2-1.221,62.241,62.241,0,0,1,6.984-5.328c.229-.161.476-.563.782-.064.278.453-.183.5-.379.635a64.4,64.4,0,0,0-6.295,4.754,11.757,11.757,0,0,1-2.881,1.858c-.2.1-.415.145-.614.232a.54.54,0,0,0-.342.6c.059.384.357.119.522.123a7.334,7.334,0,0,0,3.483-.83c3.714-1.842,6.1-4.951,8.105-8.518a14.522,14.522,0,0,0-3.45.6,3.721,3.721,0,0,0-1.666.657,30.873,30.873,0,0,1-4.13,2.968A4.923,4.923,0,0,0,53.539,129.775ZM12.621,156.52a11.966,11.966,0,0,1,1.766-3.666c.281-.4.491-.384.838-.12s.349.438.079.782a8.793,8.793,0,0,0-1.789,4.255c-.04.273-.086.6.158.767.26.176.408-.171.6-.283.66-.385,1.292-.82,1.957-1.2a1.1,1.1,0,0,0,.546-.662,37.469,37.469,0,0,0,1.45-5.7c.181-1.114.035-1.271-1.113-1.267-.137,0-.273.023-.408.035-2.658.249-4.533,1.877-6.365,3.592-.24.226-.041.323.069.453A24.722,24.722,0,0,1,12.621,156.52Zm-.351-6.548a11.986,11.986,0,0,1,3.552-1.542c.234-.051.3-.163.252-.4a23.9,23.9,0,0,0-2.387-6.843c-.2-.367-.337-.375-.647-.1-3.266,2.876-3.97,6.7-4.021,10.772,0,.283.267.673.472.454.55-.589,1.426-.876,1.547-1.9a15.091,15.091,0,0,1,1.254-5.223c.112-.217.135-.685.568-.449.372.2.708.407.4,1.011A10.9,10.9,0,0,0,12.27,149.972ZM28.527,131.88a11.72,11.72,0,0,1,1.809.494,1.194,1.194,0,0,0,1.33-.244,24.259,24.259,0,0,0,4.466-4.206,12.564,12.564,0,0,0,1.87-2.79A14.426,14.426,0,0,0,29.24,127.9a.692.692,0,0,0-.339.527c-.081.642-.181,1.281-.293,2.048,1.259-.869,2.425-1.669,3.587-2.474.3-.207.53-.415.856.043s.128.632-.227.872C31.383,129.893,29.957,130.891,28.527,131.88Zm33.746,29.154c-1.519-.069-1.524-.066-1.574,1.954-.007.3.025.6,0,.9-.051.76.324.84.97.716,2.867-.55,5.74-1.083,8.619-1.575.574-.1.662-.288.37-.728-.469-.7-.961-1.394-1.435-2.1-.176-.26-.331-.324-.66-.171A13.1,13.1,0,0,1,62.273,161.034ZM17.426,148.3a3.817,3.817,0,0,1,.948.156.961.961,0,0,0,1.216-.324,31.838,31.838,0,0,0,3.253-3.588,8.052,8.052,0,0,0,1.6-3.2c.132-.68-.069-.881-.742-.681q-1.138.336-2.249.762a18.965,18.965,0,0,0-4.741,2.387c-.252.189-.535.337-.379.79.268.774.451,1.579.686,2.431,1.1-1.36,2.151-2.657,3.2-3.951.209-.257.341-.632.808-.23.388.334.4.519.074.907C19.882,145.23,18.695,146.731,17.426,148.3Zm.244-14.257a28.231,28.231,0,0,0-3.264,5.478.765.765,0,0,0,.026.757c.407.769.785,1.552,1.184,2.326.079.153.066.454.309.4s.244-.329.23-.555c-.049-.846-.082-1.694-.153-2.537-.03-.364-.076-.647.446-.625.367.015.67-.074.665.5-.007.747.115,1.5.183,2.275.728-.344,1.409-.677,2.1-.988a.518.518,0,0,0,.333-.573A10.1,10.1,0,0,0,17.669,134.045Zm3.271,6.416c.726-.4,1.748-.324,2.249-.994a13.537,13.537,0,0,1,2.762-2.546,2.954,2.954,0,0,1,1.411-.571,7.134,7.134,0,0,0,3.975-2.476,11.482,11.482,0,0,0-3.274-.823.738.738,0,0,0-.7.135,28.008,28.008,0,0,0-4.061,4.719,1.491,1.491,0,0,1-1.315.864c-1.361.115-1.361.117-1.152,1.483A.955.955,0,0,0,20.94,140.461Zm-.793-4.5a8.389,8.389,0,0,1,6.14-3.951,1,1,0,0,0,1.006-.933c.153-.858.326-1.714.494-2.568.1-.517-.086-.709-.611-.586a6.407,6.407,0,0,0-2.677,1.537,31.5,31.5,0,0,0-4.309,4.825C19.743,134.861,19.59,135.355,20.147,135.964Zm34.545-15.407.138.038c.7-1.491,1.394-2.988,2.114-4.471.119-.244.125-.756.64-.5s.1.584-.008.82c-.876,1.913-1.778,3.816-2.686,5.714a2.023,2.023,0,0,0-.2,1.258c2.765-2.765,4.262-5.956,3.611-10.015a19.671,19.671,0,0,0-3.644,3.477.863.863,0,0,0-.206.606C54.532,118.511,54.611,119.533,54.691,120.557Zm13.542,38.331c-.532-.14-.505-.978-1.276-.677a9.8,9.8,0,0,1-4.115.464c-1.121-.053-1.121-.048-1.409,1.147A11.41,11.41,0,0,0,68.234,158.887Zm-42.686-25.5c-1.8.184-4.533,2.451-4.963,3.99-.076.275.04.328.288.319a1.8,1.8,0,0,0,1.733-.76A45.624,45.624,0,0,1,25.548,133.386Zm36.9,24.14a9.23,9.23,0,0,0,3.952-.331c-.372-.285-.616-.5-.889-.678-2.4-1.541-1.725-1.528-3.062.76C62.423,157.315,62.443,157.38,62.443,157.526Z" transform="translate(0)"/><path class="b" d="M446.731,274.22c-.375.556-.293,1.236-.5,1.842a6.759,6.759,0,0,1-1.376,2.588c-.143.151-.313.525-.548.156-.153-.239-.713-.365-.324-.839,1.542-1.873,1.63-4.12,1.58-6.382-.02-.879-.319-1.007-1.029-.479a10.761,10.761,0,0,0-2.016,2.155c-.161.209-.262.479-.6.632q-1.138-2.264-2.272-4.52c-.11-.221-.2-.449-.334-.658-.421-.678-.795-.736-1.366-.17a10.778,10.778,0,0,0-2.069,3.511c-.184.42-.341.851-.6,1.5a8.232,8.232,0,0,1-.194-.96c-.13-2.268-1.463-3.89-2.923-5.439-.155-.165-.347-.441-.611-.316s-.153.446-.132.672a22.835,22.835,0,0,0,.946,4.645c.123.4.2.688-.359.849-.586.17-.634-.168-.737-.556a26.987,26.987,0,0,1-.953-4.734,3.27,3.27,0,0,1,.071-1.225,1.089,1.089,0,0,1,1.77-.716,8.835,8.835,0,0,1,2.168,2.151c.11-.584.24-1.091.295-1.607s.357-.509.747-.472c.509.048.444.309.365.686-.165.774-.257,1.564-.4,2.344a1.215,1.215,0,0,0,.265,1.042c.314-.476.607-.955.938-1.407a5.544,5.544,0,0,1,.757-.861,1.7,1.7,0,0,1,2.886.392c.416.665.747,1.384,1.177,2.193.866-.892,1.664-1.715,2.464-2.537.469-.482-.1-.757-.2-1.266-.4.477-.742.853-1.055,1.248-.217.275-.425.328-.647.035-.166-.217-.637-.324-.221-.76.453-.474.828-1.021,1.254-1.519a4.38,4.38,0,0,0,.835-3.4c-.041-.528-.247-.624-.677-.309a12.624,12.624,0,0,0-2.3,2.665c-.491-.856-.951-1.671-1.424-2.481a7.763,7.763,0,0,0-1.118-1.518c-.9-.922-1.425-.82-1.873.4a8.861,8.861,0,0,0-.555,2.639c-.015.29-.039.579-.067.988a35.762,35.762,0,0,0-4.267-3.5,11.576,11.576,0,0,0,1.533,2.966c.229.362.293.593-.145.848-.359.209-.543.2-.77-.174a31.242,31.242,0,0,1-1.756-3.152,3.92,3.92,0,0,1-.319-1.1.811.811,0,0,1,1.17-.925,10.908,10.908,0,0,1,2.864,2.033c.234.186.446.4.742.663.17-.53.3-1.009.476-1.473.815-2.16,1.755-2.469,3.7-1.156a4.536,4.536,0,0,0-.295-2.627c-.112-.4-.663-.843.072-1.221.169-.087-.016-.244-.094-.329a14.826,14.826,0,0,0-3.565-3.363c-1.009-.561-1.565-.342-1.931.746a7.853,7.853,0,0,0-.291,2.751c-1.23-.435-2.258-1.225-3.588-1.4a2.077,2.077,0,0,0,.487,1.244,21.55,21.55,0,0,0,1.579,2.2c.362.426.039.537-.166.77-.285.321-.482.239-.7-.074-.96-1.348-2.184-2.543-2.384-4.316-.043-.382-.426-.558-.686-.784a17.432,17.432,0,0,1-2.849-3.06A4.859,4.859,0,0,1,424,248.9a1.333,1.333,0,0,1,1.188-2c.387-.044.658-.072.482-.558-.119-.326.026-.8-.68-.634a4.547,4.547,0,0,1-4.793-1.766c-.542-.644-1-1.353-1.519-2.058a6.046,6.046,0,0,1,2.607-.446,13.85,13.85,0,0,0-1.582-2.23c-.341-.328-1.042-.324-1.59-.382-.606-.064-.682-.291-.542-.858.148-.6.5-.3.749-.252,1,.207,1.246-.035.933-1.022-.143-.453.291-.453.441-.67.181-.262.379-.143.517.071.411.64,1.106.6,1.788.792a2.616,2.616,0,0,0-.583-.984c-.209-.29-.425-.509.035-.843s.668-.217.869.2c.344.709,1.249,1.124,1.1,2.1-.007.04.112.112.184.145a12.138,12.138,0,0,1,2.668,1.62c.156-.836.288-1.547.423-2.258.048-.247.084-.527.448-.295a9.607,9.607,0,0,1,4.367,4.938c.127.374.479.956-.423,1.037-.448.039-.5-.168-.574-.474a6.874,6.874,0,0,0-2.467-3.495c-.372-.309-.517-.313-.588.222-.107.8-.29,1.6-.449,2.446-3.534-2.767-4.986-3.516-6.634-3.389.836,2.077,2.467,3.519,3.924,5.22-1.264-.092-2.385-.6-3.677-.42a3.817,3.817,0,0,0,3.621,2.067c.621-.053,1.037-.066,1.154.892.36-2.219.242-2.509-1.812-4.255-.461-.392-.6-.683-.1-1.139.229-.209.337-.17.527.013.571.551,1.175,1.07,1.73,1.636a2.717,2.717,0,0,1,.937,2.716,3.5,3.5,0,0,0,.42,2.39c.148-2.2.285-4.217.423-6.244.323-.038.328.252.423.412a14.543,14.543,0,0,0,2.574,3.486c.864.784,1.264.655,1.537-.486a7.908,7.908,0,0,0,.188-1.21c.031-.408.007-.821.007-1.323a6.937,6.937,0,0,1,2.3,1.557,9.787,9.787,0,0,1,2.751,4.112c.091.267.364.629-.212.756-.4.087-.69.174-.856-.375a8.454,8.454,0,0,0-2.912-4.086,5.605,5.605,0,0,1-.545,1.8,1.525,1.525,0,0,1-2.23.637,8.649,8.649,0,0,1-2.091-1.967c-.1,1.249-.214,2.384-.253,3.519-.02.556-.156.716-.721.579a7.2,7.2,0,0,0-1.784-.224c-.751.013-.874.267-.5.927a21.157,21.157,0,0,0,2.591,3.057c.887,1.044,2.15.92,3.207,1.4.1.044.234.059.253-.086a.626.626,0,0,0-.188-.66c-.505-.418-.958-.9-1.47-1.314-.331-.265-.295-.436-.025-.711s.426-.467.777-.1a12.169,12.169,0,0,0,1.348,1.2c.153.12.328.53.548.25.194-.245.563-.538.2-1-.731-.918-1.4-1.89-2.1-2.828-.265-.352-.466-.612.046-.971.537-.377.649.039.864.333.649.882,1.35,1.732,1.931,2.655a1.138,1.138,0,0,0,1.509.388c.443-.181.311-.84.086-1.276a3.045,3.045,0,0,0-.611-.767c-.359-.344-.336-.566.058-.9.446-.377.565-.049.82.206a2.985,2.985,0,0,1,1,2.782c-.173.971.869,1.024,1.269,1.689.122-.514.066-.918.2-1.312.313-.889.94-1.136,1.69-.553a8.393,8.393,0,0,1,2.367,3.114,15.179,15.179,0,0,1,1.134,3.414c.067.326.351.764-.311.881-.527.092-.663-.089-.782-.611a11.2,11.2,0,0,0-2.438-5.3,1.271,1.271,0,0,0-.683-.512c.15,1.508.013,2.948.889,4.309a5.82,5.82,0,0,1,.66,4.514,4.055,4.055,0,0,0,.835,2.033c.258.132.334-.118.435-.249a5.485,5.485,0,0,1,1.389-1.264,1.236,1.236,0,0,1,2.081.77,4.734,4.734,0,0,1-.112,3.216,1.544,1.544,0,0,0,.064,1.582c.756,1.406.726,1.422-.388,2.537-.7.7-1.379,1.414-2.1,2.084-.365.337-.39.622-.046.981.433-.428.851-.887,1.315-1.29,1.546-1.343,2.309-1.2,3.238.553C446.731,272.135,446.731,273.178,446.731,274.22Z" transform="translate(-346.182 -105.95)"/><path class="b" d="M170.6,553.208a9.622,9.622,0,0,0-1.4.013c-.57.086-.708-.212-.76-.663-.066-.561.393-.453.665-.468a16.167,16.167,0,0,1,9.037,1.783,6.313,6.313,0,0,0,5.911.015,13.384,13.384,0,0,1,6.673-.887,11.728,11.728,0,0,1,4.685,1.328c1.521.813,3.2.543,4.815.146,1.829-.446,3.516-1.327,5.388-1.667,1.5-.273,2.989-.645,4.509-.815.285-.031.815-.328.871.361.046.553-.193.734-.742.785a40.437,40.437,0,0,0-9.272,2.26,7.625,7.625,0,0,1-6.008-.064,11.32,11.32,0,0,0-4.788-1.228,13.2,13.2,0,0,0-5.937.889,7.54,7.54,0,0,1-7.152-.407A12.331,12.331,0,0,0,170.6,553.208Z" transform="translate(-138.107 -370.791)"/><path class="b" d="M170.5,569.582a4.968,4.968,0,0,0-1.31.021c-.6.171-.663-.1-.772-.571-.148-.64.354-.466.586-.489a15.022,15.022,0,0,1,8.886,1.643,6.369,6.369,0,0,0,5.985.161,13.47,13.47,0,0,1,6.174-.965,12.392,12.392,0,0,1,5.346,1.345c2,1.016,4.1.5,6.056-.239a37.3,37.3,0,0,1,8.736-2.076c.277-.033.756-.308.774.357.013.525-.14.721-.732.78a30.537,30.537,0,0,0-7.72,1.753,11.422,11.422,0,0,1-6.166.907,4.752,4.752,0,0,1-1.556-.5c-2.438-1.409-5.08-1.307-7.742-1.09a9.423,9.423,0,0,0-2.894.825,7.663,7.663,0,0,1-7.144-.477A12.57,12.57,0,0,0,170.5,569.582Z" transform="translate(-138.061 -384.514)"/><path class="b" d="M170.681,583.778a16.881,16.881,0,0,1,7.506,1.929c1.9,1.057,3.862.7,5.849-.041a13.648,13.648,0,0,1,11.129.387,7.063,7.063,0,0,0,4.5.309c1.865-.337,3.524-1.322,5.394-1.663a34.87,34.87,0,0,1,5.32-.917c.27-.007.591-.074.53.379-.04.3.082.667-.444.711a45.851,45.851,0,0,0-10,2.423,7.858,7.858,0,0,1-6.425-.566,10.034,10.034,0,0,0-5.284-.884,14.109,14.109,0,0,0-5,1.077,7.215,7.215,0,0,1-6.685-.537,12.571,12.571,0,0,0-5.832-1.434,8.944,8.944,0,0,0-2.3.069c-.637.138-.451-.407-.556-.677-.163-.416.186-.449.456-.471C169.434,583.827,170.038,583.809,170.681,583.778Z" transform="translate(-138.019 -397.418)"/><path class="b" d="M496.778,477.561c.446-.3.838-.6,1.261-.84,1.753-1.007,3.3-.232,3.565,1.784a7.636,7.636,0,0,1-.505,3.46,19,19,0,0,1-1.987,3.947c-.267.428-.479.365-.831.146-.384-.239-.331-.425-.109-.77a13.284,13.284,0,0,0,2.309-5.552,3.806,3.806,0,0,0,.051-.407c.008-.7-.016-1.465-.68-1.834s-1.259.135-1.788.517a11,11,0,0,0-1.845,1.888c-.4-1.3-.612-2.584-1.1-3.778a7.105,7.105,0,0,0-1.312-2.257,1.821,1.821,0,0,0-2.086-.548c-.785.291-1.5.683-1.531,1.682-.01.3-.058.6-.069.9-.015.385-.038.724-.588.639-.446-.069-.719-.2-.535-.729a2.678,2.678,0,0,0-.78-2.66,14.735,14.735,0,0,0-1.9-2.147c-.326-.28-.527-.306-.655.214a8.518,8.518,0,0,0,.12,3.091c.039.346.2.69-.375.793s-.729-.174-.759-.635a14.646,14.646,0,0,1-.1-3.355c.234-1.442,1.23-1.906,2.392-1.022a10.536,10.536,0,0,1,1.99,2.179c.094.125.14.3.4.334.1-.775.244-1.546.293-2.321.035-.556.326-.458.7-.449.523.012.482.286.43.65-.1.7-.176,1.4-.265,2.13,2.438-.971,3.832-.449,5.091,1.847A19.083,19.083,0,0,1,496.778,477.561Z" transform="translate(-402.121 -302.073)"/><path class="b" d="M545.408,537.859c-.094.14-.174.28-.275.407-1.081,1.376-2.178,2.741-3.243,4.13-.285.372-.489.365-.844.1s-.321-.458-.069-.77c1.129-1.406,2.237-2.83,3.356-4.244.123-.155.221-.417.5-.181C545.04,537.472,545.32,537.562,545.408,537.859Z" transform="translate(-449.156 -358.515)"/><path class="b" d="M529.992,514.528c.326-1.263.663-2.553.991-3.845.114-.444.4-.237.645-.189.28.054.556.105.449.507q-.516,1.933-1.025,3.865c-.094.356-.29.36-.609.262S529.842,514.987,529.992,514.528Z" transform="translate(-440.109 -336.123)"/><path class="b" d="M541.978,452.453c-.044.336-.062.583-.114.821-.04.183.033.55-.308.413-.281-.112-.83-.04-.767-.543a10.064,10.064,0,0,0-.321-3.381c-.1-.482.066-.6.463-.723.515-.161.622.132.673.51C541.741,450.545,541.863,451.542,541.978,452.453Z" transform="translate(-448.871 -284.823)"/><path class="b" d="M520.11,351.864c.033.421-.336.4-.533.527a.321.321,0,0,1-.527-.153q-.716-1.457-1.465-2.9c-.151-.293.016-.4.23-.486.232-.087.535-.418.718-.089C519.1,349.784,519.6,350.842,520.11,351.864Z" transform="translate(-429.73 -200.972)"/><path class="b" d="M500.353,514.463a3.7,3.7,0,0,0,.007.617c.043.324-.069.472-.39.456-.273-.015-.619.135-.658-.359-.082-1.062-.193-2.122-.291-3.184-.046-.487.321-.4.6-.436.329-.048.509.035.53.415C500.194,512.736,500.273,513.5,500.353,514.463Z" transform="translate(-414.266 -337.077)"/><path class="b" d="M563.042,480.6c-.637-.02-.925-.548-.66-.989.477-.793.984-1.572,1.427-2.383.25-.458.489-.272.787-.107.319.174.413.337.178.69-.527.79-1,1.613-1.491,2.428C563.188,480.4,563.135,480.579,563.042,480.6Z" transform="translate(-467.119 -308.169)"/><path class="b" d="M409.656,227.287l-.543.624c-.189.219-.326.064-.469-.064-.711-.632-1.406-1.284-2.143-1.886-.382-.313-.143-.477.054-.709.214-.252.385-.423.714-.112.691.652,1.417,1.269,2.128,1.9C409.475,227.11,409.547,227.183,409.656,227.287Z" transform="translate(-336.81 -97.675)"/><path class="b" d="M540.574,403.3c-.105.446.454,1.17-.571,1.174-.342,0-.5-.031-.522-.408-.031-.627-.1-1.254-.168-1.878-.043-.37.179-.43.448-.393.25.033.645-.224.688.3C540.483,402.508,540.534,402.916,540.574,403.3Z" transform="translate(-447.926 -245.365)"/><path class="b" d="M512.279,375.85c-.062.388-.4.433-.627.6-.244.184-.319-.023-.42-.186-.3-.484-.6-.968-.91-1.442-.24-.364-.318-.6.173-.889s.576-.068.769.277C511.581,374.775,511.943,375.313,512.279,375.85Z" transform="translate(-423.553 -222.009)"/><path class="c" d="M127.52,431.36a37.481,37.481,0,0,0,7.075,2.979,68.976,68.976,0,0,0,11.368,2.384,47.891,47.891,0,0,0,10.161.324c3.33-.268,6.644-.647,9.937-1.187,4.77-.782,9.5-1.779,14.189-2.947.927-.23,1.86-.451,2.772-.734.5-.155.681-.066.576.453a18.593,18.593,0,0,1-1.075,3.43c-.133.319-.41.326-.662.407a108.007,108.007,0,0,1-14.008,3.381,88.85,88.85,0,0,1-19.053,1.292,60.857,60.857,0,0,1-18.082-3.251,1.7,1.7,0,0,1-1.118-1.065c-.714-1.789-1.49-3.556-2.24-5.33Z" transform="translate(-103.788 -270.091)"/><path class="d" d="M171.829,478.924a136.119,136.119,0,0,1-19.346-2.466c-2.1-.37-3.434-1.134-3.916-3.24a10.907,10.907,0,0,0-.617-1.511c-.058-.145-.143-.361-.081-.454.137-.207.344-.031.512.023a53.979,53.979,0,0,0,6.092,1.618,77.458,77.458,0,0,0,19.114,1.319,98.155,98.155,0,0,0,13.1-1.536,110.709,110.709,0,0,0,11.834-2.891c.528-.158.807-.268.617.517-.308,1.276-.749,2.509-1.075,3.774a1.072,1.072,0,0,1-1.014.863q-6.259,1.062-12.507,2.178c-2.846.505-5.681,1.088-8.537,1.534C174.634,478.867,173.223,478.842,171.829,478.924Z" transform="translate(-120.902 -302.098)"/><path class="d" d="M455.138,523.359a47.35,47.35,0,0,1,2.785-9.281c.168-.356.352-.912.757-.884.428.03.472.614.573.993.448,1.7.528,3.452.8,5.175.117.726-.066,1.766.418,2.086.446.293,1.184-.547,1.814-.844a13.463,13.463,0,0,1,3.516-1.322c.823-.137,1.108.092,1.151.919.094,1.779.2,3.557.285,5.337.021.464.138.586.642.5,1.452-.263,2.915-.458,4.379-.655,1.156-.156,1.373.117.932,1.2a11.209,11.209,0,0,1-4.946,5.31,23.615,23.615,0,0,1-5.717,2.418.657.657,0,0,1-.905-.377c-1.921-3.407-4.115-6.644-6.188-9.957C455.295,523.738,455.114,523.532,455.138,523.359Zm9.656-.441c-.041-.351-.41-.387-.621-.575-.29-.257-.365.1-.469.244-1.266,1.75-2.509,3.516-3.791,5.254-.277.375-.258.53.105.825.428.346.593.137.821-.184,1.221-1.715,2.453-3.422,3.679-5.134C464.613,523.215,464.7,523.073,464.794,522.918Zm-7.651,2.018c-.155.44.258.372.515.458.332.11.533.1.607-.349.214-1.31.472-2.614.742-3.914.11-.528-.314-.408-.545-.5-.283-.105-.494-.081-.563.328C457.677,522.271,457.407,523.572,457.143,524.936Zm7.3,6.849v-.064c.6,0,1.2-.025,1.8.008.487.026.573-.183.579-.625,0-.472-.2-.53-.586-.517-1.144.036-2.291.061-3.435.054-.438,0-.629.091-.616.584.012.476.16.611.625.571C463.349,531.749,463.9,531.786,464.442,531.786Z" transform="translate(-377.609 -338.454)"/><path class="d" d="M162.38,509.464c3.959.858,7.773,1.528,11.608,2.079a70.484,70.484,0,0,0,13.518.723,48.9,48.9,0,0,0,5.643-1.016c4.93-.825,9.847-1.72,14.772-2.573.474-.082,1.116-.44,1.4-.059s-.2.95-.364,1.425a12.912,12.912,0,0,0-.533,1.279c-.281,1.19-1.047,1.412-2.166,1.411a26.046,26.046,0,0,0-8.872,1.751,12.919,12.919,0,0,1-5.521.986,3.91,3.91,0,0,1-1.639-.467,12.379,12.379,0,0,0-6.994-1.286,14.124,14.124,0,0,0-4.833,1.116,6.307,6.307,0,0,1-5.822-.5,13.016,13.016,0,0,0-6.064-1.534,11.634,11.634,0,0,0-1.809.01,1.019,1.019,0,0,1-1.266-.8C163.16,511.194,162.777,510.407,162.38,509.464Z" transform="translate(-133.043 -334.487)"/><path class="e" d="M317.041,168.842l-2.028,1.468a2.923,2.923,0,0,1,.568-2.133,33.763,33.763,0,0,0,3.518-5.027c.645-1.142,1.946-1.691,3.169-2.51-.2,3.057-1.164,5.516-3.658,7.2-.451.3-.922.584-1.383.874l-.107-.158q2.151-2.8,4.3-5.59c.171-.222.467-.425.051-.719s-.467.12-.6.29c-1.407,1.783-2.787,3.587-4.206,5.36-.43.537-.265.741.316.846C317,168.775,317.021,168.808,317.041,168.842Z" transform="translate(-260.547 -43.933)"/><path class="f" d="M284.9,177.93q0,2.133,0,4.268a5.566,5.566,0,0,1-.166-2.543C284.714,179.086,284.485,178.467,284.9,177.93Z" transform="translate(-235.188 -58.377)"/><path class="f" d="M284.148,618.853l-3.118,0A5.337,5.337,0,0,1,284.148,618.853Z" transform="translate(-232.163 -426.527)"/><path class="f" d="M257.936,140.9q.012,1.314.026,2.627A3.983,3.983,0,0,1,257.936,140.9Z" transform="translate(-212.695 -27.443)"/><path class="c" d="M241.894,191.28c.051.074.224.123.092.235-.082.071-.207.021-.277-.086Z" transform="translate(-199.315 -69.53)"/><path class="e" d="M327.229,208.88c-.063.043-.125.084-.186.127-.02-.033-.039-.067-.063-.1l.143-.186C327.158,208.774,327.192,208.827,327.229,208.88Z" transform="translate(-270.549 -84.099)"/><path class="c" d="M200.313,632.512l-.193.072c.012-.067.023-.135.033-.2Z" transform="translate(-164.571 -438.021)"/><path class="c" d="M392.59,636.8c.072.021.146.058.089.14-.018.025-.123-.013-.189-.023A.686.686,0,0,1,392.59,636.8Z" transform="translate(-325.275 -441.714)"/><path class="g" d="M209.736,634.886c.061.482.147.963.171,1.449.013.247.268.672-.17.711a.672.672,0,0,1-.728-.627c-.076-.917-.145-1.834-.216-2.749.007-.194.064-.4-.077-.57-.262-1.551-.262-1.551-1.852-1.3-1.1.174-1.085.171-.894,1.272.234,1.346.509,2.691.642,4.049a1.065,1.065,0,0,0,.856,1.067,1.916,1.916,0,0,1,1.33,1.131c-.709-.293-1.335-.528-1.939-.81a.774.774,0,0,0-1.022.163c-.63.66-1.473.464-2.252.476-.183,0-.329-.189-.375-.392a.585.585,0,0,1,.308-.7c.522-.237.993-.685,1.633-.533s.657-.1.535-.632a17.123,17.123,0,0,1-.316-2.11,1.446,1.446,0,0,0-.989-1.185c-.563-.272-.7.273-.963.509a12.8,12.8,0,0,0-1.379,1.407,1.426,1.426,0,0,1-1.588.505c-.008-.076-.033-.137-.016-.181.119-.326.629-.612.2-.994-.334-.295-.726-.089-1.067.1-.433.24-.973.617-1.33.161-.318-.407.2-.838.477-1.182a4.717,4.717,0,0,1,6.543-.459c-.234-.966-.43-1.778-.634-2.619,2.5.52,3.06.55,3.732.2-1.039-.754-1.035-1.248.092-1.919a3.44,3.44,0,0,1,2.593-.668c.211.049.286.137.114.319l.313.038a5.343,5.343,0,0,0-2.321,1.134c-.186.194-.505.382-.408.655a.7.7,0,0,0,.721.369,10.8,10.8,0,0,0,1.244,0,17.078,17.078,0,0,1,5.188-.033c.033.087.077.127.156.043a4.541,4.541,0,0,1,2.153.1c.194.28.413.239.644.048a24.454,24.454,0,0,1,3.705.645c.578.194.892.863,1.338.965s1-.365,1.607-.328a2.254,2.254,0,0,1,2.033,1.513c-.107.053-.216.105-.323.16a1.656,1.656,0,0,0-1.969-.418c.352.3.639.51.889.76a.65.65,0,0,1,.166.816.674.674,0,0,1-.7.328,1.225,1.225,0,0,1-.93-.262,1.61,1.61,0,0,0-1.893-.435c-.571.16-1.215.044-1.365-.688-.145-.711.5-.808.96-1.007a5.887,5.887,0,0,1,.652-.2c-.127-.6-.65-.7-1.1-.835a10.384,10.384,0,0,0-1.457-.227c-1.241-.176-1.243-.176-1.394,1.1-.17,1.43-.337,2.863-.509,4.318a1.053,1.053,0,0,1-.719-1.287c.11-.673.1-1.366.206-2.041.107-.693-.265-.945-.84-1.062-.507-.1-.919-.086-1.016.589-.046.323-.219.334-.545-.013a2.381,2.381,0,0,0-2.479-.662c-.514.117-.927.313-.925.862s.489.639,1.014.721c-.1-.385-.1-.9.326-.81.543.109,1.291-.265,1.625.505.2.456-.114.652-.459.807a4.083,4.083,0,0,1-3.044-.589,1.411,1.411,0,0,1,.637-2.268,3.046,3.046,0,0,1,2.64.273.444.444,0,0,0,.565.076,1.679,1.679,0,0,1,2.5.456c.377-1.287.377-1.287-1.024-1.444.2-.112.464.059.708-.2a12.218,12.218,0,0,0-2.658.168c-1.544-.1-3.086,0-4.629.041-.683.02-1.108.138-.961.933.007.056.013.11.021.165a8.715,8.715,0,0,1,.2,2.035A.188.188,0,0,0,209.736,634.886Zm-9.878-.693a1.2,1.2,0,0,1,1.353.318c.173.216.272.173.444.012.487-.454.993-.891,1.59-1.422A2.942,2.942,0,0,0,199.858,634.193Zm5.5,3.89a2.83,2.83,0,0,0-.431-.061,1.078,1.078,0,0,0-1,.425.224.224,0,0,0,.061.212c.372.24.665-.066.983-.171A.506.506,0,0,0,205.36,638.083Z" transform="translate(-162.911 -434.692)"/><path class="g" d="M372.538,653.791c.542-.015.332-.492.4-.739a11.452,11.452,0,0,1,.528-1.992c.2,1.159,1.1,1.5,1.644,2.166-.063.044-.1.1-.13.089-1.282-.3-1.282-.3-1.732.973l-1.416,4.012a1,1,0,0,1-.438-1.468c.352-.764.486-1.615.912-2.352C372.608,654.326,372.482,654.028,372.538,653.791Z" transform="translate(-307.52 -453.626)"/><path class="f" d="M277.487,629.07l-.313-.038a.208.208,0,0,1,.171-.281,2.442,2.442,0,0,0,1.944-.051,9.286,9.286,0,0,1,3.235,1.165c.235.137.446.267.476.565l.018-.007A9.451,9.451,0,0,0,277.487,629.07Z" transform="translate(-228.934 -434.947)"/><path class="g" d="M280.194,627.614a2.442,2.442,0,0,1-1.944.051A2.107,2.107,0,0,1,280.194,627.614Z" transform="translate(-229.84 -433.859)"/><path class="f" d="M375.456,662.93c-.056.237.071.535-.234.688.16-.6-.283-.988-.492-1.458.107-.053.216-.105.323-.16C375.212,662.3,375.509,662.54,375.456,662.93Z" transform="translate(-310.439 -462.766)"/><path class="f" d="M301.05,645.9a12.116,12.116,0,0,1,2.658-.168c-.245.262-.51.091-.708.2C302.349,645.919,301.7,645.908,301.05,645.9Z" transform="translate(-248.887 -449.174)"/><path class="f" d="M320.674,644.788c-.23.193-.448.232-.644-.048C320.246,644.755,320.46,644.771,320.674,644.788Z" transform="translate(-264.743 -448.347)"/><path class="a" d="M262.343,656.98c.142.174.084.375.077.57A.873.873,0,0,1,262.343,656.98Z" transform="translate(-216.539 -458.572)"/><path class="a" d="M268.147,666.335a.185.185,0,0,1-.036-.295C268.122,666.139,268.136,666.236,268.147,666.335Z" transform="translate(-221.322 -466.141)"/><path class="f" d="M312.6,639.161c.025,0,.049-.007.074-.012-.018,0-.035,0-.054,0C312.618,639.155,312.6,639.161,312.6,639.161Z" transform="translate(-258.536 -443.677)"/><path class="a" d="M306.156,643.943c-.079.084-.125.044-.156-.043A.513.513,0,0,1,306.156,643.943Z" transform="translate(-253.022 -447.645)"/><path class="a" d="M267.1,652.845c-.007-.054-.013-.11-.021-.165a.71.71,0,0,1,.046.11C267.131,652.8,267.111,652.825,267.1,652.845Z" transform="translate(-220.509 -454.98)"/><path class="b" d="M488.067,568.892c-.1.155-.181.3-.277.43-1.226,1.712-2.458,3.419-3.679,5.134-.229.321-.393.53-.821.184-.365-.295-.382-.451-.105-.825,1.282-1.737,2.523-3.5,3.791-5.254.1-.143.179-.5.469-.244C487.657,568.505,488.026,568.542,488.067,568.892Z" transform="translate(-400.882 -384.428)"/><path class="b" d="M467.159,562.433c.263-1.365.533-2.665.756-3.974.069-.408.281-.433.563-.328.23.086.655-.033.545.5-.272,1.3-.53,2.6-.742,3.914-.074.451-.273.459-.607.349C467.417,562.8,467,562.872,467.159,562.433Z" transform="translate(-387.625 -375.95)"/><path class="b" d="M500.2,620.052c-.545,0-1.093-.036-1.635.012-.464.039-.612-.1-.625-.571-.013-.494.179-.588.616-.584,1.146.007,2.291-.018,3.435-.054.388-.012.591.044.586.517,0,.443-.092.652-.579.626-.6-.033-1.2-.008-1.8-.008C500.2,620.009,500.2,620.03,500.2,620.052Z" transform="translate(-413.364 -426.72)"/><path class="a" d="M236.178,406.71c-1.279-.685-2.606.035-3.965.156a7.625,7.625,0,0,1-2.77-.143.962.962,0,0,0-.566,0,9.386,9.386,0,0,1-5.638.074,13.431,13.431,0,0,1-2.83-.759c-1.6-.754-1.957-1.855-1.134-3.4a6.016,6.016,0,0,1,4.808-3.149,74.849,74.849,0,0,1,8.2-.209c2.217-.063,4.438-.018,6.655-.092.762-.025.884.239.739.894a8.381,8.381,0,0,1-1.085,3.481c-.234.314-.051.691-.023,1.035.105,1.355-.1,1.646-1.462,1.96C236.843,406.614,236.572,406.644,236.178,406.71Zm-1.026-6.3h-3.394a2.416,2.416,0,0,1-.328,0c-.328-.043-.431.174-.5.423-.183.713-.356,1.429-.533,2.143-.072.291-.015.461.339.467,1.04.018,2.079.061,3.119.091a.439.439,0,0,0,.52-.382C234.609,402.237,234.891,401.33,235.153,400.412Zm-5.251.007c-.683,0-1.307,0-1.931,0-2.255,0-2.255,0-2.657,2.189-.01.054-.013.109-.026.161-.077.323-.018.486.38.5,1.009.021,2.018.079,3.025.153.393.028.514-.142.591-.491C229.462,402.11,229.681,401.3,229.9,400.418Zm-5.243.072a5.52,5.52,0,0,0-4.227,2.374,14.857,14.857,0,0,0,3.376.26c.249.015.308-.115.351-.336C224.3,402.048,224.476,401.312,224.659,400.491Zm11.457,2.935a2.676,2.676,0,0,0,1.277-.339c.848-.645.848-1.585,1.067-2.461.059-.235-.058-.308-.3-.341-1.47-.193-1.758-.026-2.2,1.363-.122.388-.191.8-.344,1.172C235.395,403.361,235.571,403.521,236.116,403.426Zm-7.289,1.108c-1.147-.053-2.268-.1-3.389-.153-.212-.01-.41-.049-.551.216-.533.994-.306,1.439.808,1.491a9.031,9.031,0,0,0,1.8-.133C228.3,405.834,228.912,405.577,228.827,404.533Zm.988,1.154a8.533,8.533,0,0,0,3.714-.174.571.571,0,0,0,.5-.7c-.054-.4-.379-.209-.579-.217-.792-.028-1.593.041-2.377-.049C230.162,404.441,229.753,404.759,229.814,405.687Zm-6.035-1.5c-.639,0-1.266.044-1.883-.012a9.107,9.107,0,0,0-1.993-.072,2.807,2.807,0,0,0,2.163,1.33C223.538,405.809,223.541,405.8,223.78,404.189Zm12.614.346v.03c-.3,0-.6.007-.9,0-.249-.008-.351.112-.344.344.007.178-.1.41.176.477a3.069,3.069,0,0,0,1.941-.028c.334-.137.226-.474.2-.729-.036-.4-.316-.151-.5-.145S236.585,404.517,236.394,404.535Z" transform="translate(-180.216 -243.208)"/><path class="b" d="M44.34,574.89c.2.13.37.221.522.336a84.482,84.482,0,0,1,7.159,6.525c.316.3.168.481-.074.724-.281.285-.456.337-.784.012-1.98-1.974-3.965-3.944-6.128-5.722-.318-.26-.642-.512-.978-.747-.176-.123-.308-.235-.17-.456S44.18,575.125,44.34,574.89Z" transform="translate(-34.007 -389.995)"/><path class="g" d="M297.767,140.858q.017,7.476.036,14.951c0,.566-.2.678-.654.351.247-.253.135-.573.137-.859.007-4.542,0-9.083.01-13.625C297.3,141.336,297.115,140.844,297.767,140.858Z" transform="translate(-245.629 -27.408)"/><path class="f" d="M297.559,140.088c-.652-.015-.469.477-.471.818-.008,4.542,0,9.083-.01,13.625,0,.288.11.606-.137.859q-.017-6.348-.036-12.7c0-.765-.012-1.529,0-2.295C296.919,139.85,296.936,139.85,297.559,140.088Z" transform="translate(-245.421 -26.638)"/><path class="g" d="M247.421,176.51a49.239,49.239,0,0,0-3.077-4.114c-.435-.593-.9-1.16-1.353-1.745-.142-.184-.367-.347-.064-.609.344-.3.476-.013.635.191,1.411,1.806,2.808,3.623,4.23,5.419.467.591.221.782-.388.839C247.4,176.493,247.421,176.51,247.421,176.51Z" transform="translate(-200.206 -51.68)"/><path class="g" d="M324.28,176.194l-.143.186c-.581-.105-.746-.308-.316-.846,1.419-1.773,2.8-3.577,4.206-5.36.135-.17.191-.581.6-.29s.119.5-.051.719Q326.433,173.4,324.28,176.194Z" transform="translate(-267.708 -51.572)"/><path class="e" d="M208.61,657.406A2.946,2.946,0,0,1,212,656.311c-.6.532-1.1.968-1.59,1.422-.173.161-.272.2-.444-.011A1.207,1.207,0,0,0,208.61,657.406Z" transform="translate(-171.663 -457.905)"/><path class="e" d="M234.742,686.94a.5.5,0,0,1-.385.4c-.318.105-.611.411-.983.171a.223.223,0,0,1-.061-.212,1.078,1.078,0,0,1,1-.425A2.83,2.83,0,0,1,234.742,686.94Z" transform="translate(-192.292 -483.549)"/><path class="h" d="M293.651,406.633c-.262.919-.543,1.824-.772,2.742a.44.44,0,0,1-.52.382c-1.04-.03-2.079-.072-3.119-.091-.356-.007-.411-.176-.339-.467.178-.714.351-1.43.533-2.143.064-.249.168-.466.5-.423a2.413,2.413,0,0,0,.328,0C291.374,406.633,292.492,406.633,293.651,406.633Z" transform="translate(-238.714 -249.429)"/></g></svg>